<svg width="170" height="52" viewBox="0 0 170 52" fill="none" xmlns="http://www.w3.org/2000/svg">
<path d="M23.6562 51.9375C21.5 51.9375 19.7812 51.4844 18.5 50.5781C17.25 49.6406 16.2344 48.1094 15.4531 45.9844L1.48438 8.95312C1.04688 7.73438 0.828125 6.625 0.828125 5.625C0.828125 4.0625 1.375 2.79688 2.46875 1.82812C3.5625 0.828125 4.96875 0.328125 6.6875 0.328125C9.5 0.328125 11.3438 1.875 12.2188 4.96875L23.5625 40.1719H23.7969L35.1406 4.875C36.0156 1.84375 37.8438 0.328125 40.625 0.328125C42.25 0.328125 43.5938 0.828125 44.6562 1.82812C45.75 2.82812 46.2969 4.07812 46.2969 5.57812C46.2969 6.64062 46.0938 7.70312 45.6875 8.76562L31.7188 45.9844C31 48.0156 29.9844 49.5156 28.6719 50.4844C27.3906 51.4531 25.7188 51.9375 23.6562 51.9375ZM73.5781 51.9844C65.9844 51.9844 60.0625 49.7344 55.8125 45.2344C51.5625 40.7031 49.4375 34.4062 49.4375 26.3438C49.4375 18.4062 51.5625 12.0781 55.8125 7.35938C60.0625 2.64062 65.7656 0.28125 72.9219 0.28125C79.7031 0.28125 85.2031 2.45312 89.4219 6.79688C93.6719 11.1094 95.7969 16.6562 95.7969 23.4375C95.7969 25.1875 95.3125 26.5469 94.3438 27.5156C93.4062 28.4844 92.0781 28.9688 90.3594 28.9688H61.0625V29.3438C61.0625 33.5 62.1875 36.8125 64.4375 39.2812C66.6875 41.75 69.7031 42.9844 73.4844 42.9844C76.1094 42.9844 78.3594 42.4844 80.2344 41.4844C82.1406 40.4844 84.0312 38.7812 85.9062 36.375C87.0312 35.125 88.3438 34.5 89.8438 34.5C91.1875 34.5 92.2969 34.9062 93.1719 35.7188C94.0781 36.5312 94.5312 37.625 94.5312 39C94.5312 39.9062 94.2656 40.8906 93.7344 41.9531C92.0781 45.1094 89.4844 47.5781 85.9531 49.3594C82.4219 51.1094 78.2969 51.9844 73.5781 51.9844ZM61.1562 21.2812H84.3594C84.2344 17.6875 83.125 14.7969 81.0312 12.6094C78.9375 10.4219 76.25 9.32812 72.9688 9.32812C69.6875 9.32812 66.9531 10.4375 64.7656 12.6562C62.5781 14.8438 61.375 17.7188 61.1562 21.2812ZM118.859 51.9375C116.891 51.9375 115.328 51.4688 114.172 50.5312C113.047 49.5625 112.172 48.0312 111.547 45.9375L100.766 8.8125C100.391 7.375 100.203 6.21875 100.203 5.34375C100.203 3.875 100.719 2.67188 101.75 1.73438C102.812 0.796875 104.172 0.328125 105.828 0.328125C108.734 0.328125 110.547 1.96875 111.266 5.25L119.516 39.4688H119.75L128.422 5.67188C129.234 2.10938 131.453 0.328125 135.078 0.328125C138.641 0.328125 140.828 2.10938 141.641 5.67188L150.359 39.4688H150.641L158.891 5.20312C159.609 1.95312 161.391 0.328125 164.234 0.328125C165.891 0.328125 167.234 0.796875 168.266 1.73438C169.297 2.64062 169.812 3.82812 169.812 5.29688C169.812 6.23438 169.609 7.375 169.203 8.71875L158.469 45.9375C157.875 48 156.984 49.5156 155.797 50.4844C154.609 51.4531 153.031 51.9375 151.062 51.9375C148.969 51.9375 147.328 51.4688 146.141 50.5312C144.953 49.5625 144.094 48.0156 143.562 45.8906L135.031 14.6719H134.797L126.266 45.9375C125.297 49.9375 122.828 51.9375 118.859 51.9375Z" fill="white"/>
</svg>
